<?xml version="1.0" encoding="UTF-8"?>
<svg id="Layer" xmlns="http://www.w3.org/2000/svg" viewBox="0 0 50 50">
  <defs>
    <style>
      .cls-1 {
        fill: #648c00;
      }

      .cls-2 {
        fill: #fff;
      }

      .cls-3 {
        fill: #325028;
      }
    </style>
  </defs>
  <circle class="cls-3" cx="25" cy="25" r="24.09"/>
  <g>
    <path class="cls-1" d="M15.75,16.77h21.83c-.3,1.2-.58,2.36-.87,3.53-.48,1.93-.97,3.85-1.42,5.78-.1.4-.28.53-.68.52-5.1-.01-10.2,0-15.3,0-.24,0-.44.01-.54-.31-.99-3.12-2-6.23-3-9.34-.02-.05-.01-.11-.02-.18Z"/>
    <g>
      <path class="cls-2" d="M12.66,12.89c-1.09,0-2.18.01-3.26,0-.62,0-1-.43-.9-.99.08-.44.36-.68.8-.69,1.33-.02,2.65-.04,3.98-.03.45,0,.74.28.87.71.28.91.59,1.82.86,2.74.09.32.22.44.57.44,7.22-.01,14.44,0,21.66-.03,1.11,0,2.33,1.08,1.95,2.42-.84,2.93-1.5,5.92-2.24,8.88-.34,1.38-1.21,1.98-2.64,1.96-2.85-.03-5.71,0-8.57,0-2.08,0-4.16,0-6.34,0,.28.88.54,1.69.81,2.5.38,1.14.09.96,1.29.96,4.61,0,9.21,0,13.82,0,.2,0,.41,0,.61.02.42.06.66.32.7.73.04.41-.14.73-.54.86-.2.07-.43.07-.65.07-5.05,0-10.09,0-15.14,0-.87,0-1.03-.12-1.3-.95-2.05-6.35-4.1-12.7-6.14-19.05-.06-.17-.12-.34-.19-.55ZM15.74,16.77c0,.07,0,.13.02.18,1,3.11,2.01,6.23,3,9.34.1.32.3.31.54.31,5.1,0,10.2,0,15.3,0,.4,0,.59-.12.68-.52.46-1.93.95-3.86,1.42-5.78.29-1.17.58-2.33.87-3.53H15.74Z"/>
      <path class="cls-2" d="M25.2,39c0,1.41-1.17,2.56-2.63,2.57-1.47.02-2.68-1.15-2.67-2.58,0-1.4,1.21-2.55,2.66-2.55,1.45,0,2.64,1.16,2.65,2.56Z"/>
      <path class="cls-2" d="M30.51,39.01c0-1.41,1.17-2.56,2.63-2.57,1.47,0,2.69,1.18,2.67,2.6-.02,1.4-1.22,2.55-2.67,2.54-1.46-.01-2.63-1.15-2.63-2.57Z"/>
    </g>
  </g>
</svg>